<?xml version="1.0" encoding="UTF-8"?><svg id="Warstwa_1" xmlns="http://www.w3.org/2000/svg" xmlns:xlink="http://www.w3.org/1999/xlink" viewBox="0 0 600 600"><defs><style>.cls-1{clip-path:url(#clippath);}.cls-2{fill:none;}.cls-2,.cls-3,.cls-4{stroke-width:0px;}.cls-3{fill:#f6f4f1;}.cls-4{fill:#6198b8;}</style><clipPath id="clippath"><rect class="cls-2" x="138.49" y="207.33" width="323" height="185"/></clipPath></defs><rect class="cls-4" x="-14.13" y="-19.07" width="628.26" height="638.13"/><g class="cls-1"><path class="cls-3" d="M336.21,207.44c-28.4,0-52.49,19.01-60.22,44.97-8.29-6.52-18.68-10.39-29.95-10.39-26.63,0-48.4,21.66-48.4,48.4,0,2.32.11,4.53.44,6.74-3.54-.89-7.29-1.33-11.16-1.33-26.63,0-48.4,21.66-48.4,48.4,0,25.31,19.56,46.08,44.31,48.18,1.22.11,2.43.11,3.54.22h220.9c29.95-.33,54.26-24.75,54.26-54.81s-24.64-54.81-54.81-54.81c-3.09,0-6.19.22-9.29.78.99-4.42,1.44-8.95,1.44-13.59.11-34.59-28.07-62.77-62.66-62.77ZM336.21,210.75c32.82,0,59.45,26.74,59.45,59.45,0,4.97-.55,9.72-1.77,14.26-.66,1.88,0,3.32,2.66,2.76,3.31-.66,6.63-.99,10.17-.99,28.4,0,51.6,23.09,51.6,51.6s-22.77,51.16-50.94,51.49h-1.44c-6.63,0-11.82.11-18.01,0h-183.44c-9.72,0-11.27.11-17.46,0-24.86,0-45.08-20.22-45.08-45.09s20.22-45.08,45.08-45.08c4.09,0,7.96.55,11.71,1.55,2.1.44,3.09-.89,2.88-2.65-.44-2.54-.66-5.08-.66-7.73,0-24.86,20.22-45.09,45.08-45.09,11.05,0,21.11,3.98,28.95,10.61,2.21,1.99,3.32.55,3.65-1.1,6.85-25.31,30.06-43.98,57.57-43.98Z"/></g><path class="cls-3" d="M223.12,342.9s-4.54,2.57-10.9,2.57c-7.8,0-13.57-5.56-13.57-13.09s5.4-13.26,14.21-13.26c4.86,0,9.83,2.46,9.83,2.46l2.3-5.66s-5.02-3.05-13.25-3.05c-11.11,0-20.25,8.55-20.25,19.4s8.44,19.45,21.16,19.45c7.64,0,12.51-3.15,12.51-3.15l-2.03-5.67Z"/><path class="cls-3" d="M231.45,351.07h24.42v-6.09h-17.79v-31.47h-6.62v37.56Z"/><path class="cls-3" d="M257.94,332.27c0,11.11,8.55,19.4,20.04,19.4s20.09-8.33,20.09-19.4-8.44-19.4-20.09-19.4-20.04,8.55-20.04,19.4ZM265.11,332.37c0-7.7,5.5-13.52,12.93-13.52s12.93,5.82,12.93,13.52-5.67,13.46-12.93,13.46-12.93-5.93-12.93-13.46Z"/><path class="cls-3" d="M304.53,335.53c0,11.22,6.14,16.24,15.55,16.24s15.76-5.02,15.76-16.24v-22.02h-6.63v21.96c0,7.21-3.47,10.2-9.14,10.2s-8.92-2.99-8.92-10.15v-22.02h-6.63v22.02Z"/><path class="cls-3" d="M344.7,351.07h14.16c11.49,0,20.09-8.07,20.09-18.81s-8.44-18.76-20.09-18.76h-14.16v37.56ZM358.91,319.6c7.53,0,12.93,5.4,12.93,12.77s-5.66,12.61-12.93,12.61h-7.54v-25.38h7.54Z"/><path class="cls-3" d="M408.86,340.92c0-4.92-2.41-8.23-10.79-11.49-5.29-1.92-7.32-3.42-7.32-5.82,0-2.62,1.82-4.81,5.77-4.81,2.89,0,6.2,1.28,8.39,2.51l2.14-5.88c-2.4-1.39-6.36-2.57-10.36-2.57-8.02,0-12.61,5.23-12.61,10.9,0,4.49,2.51,7.96,9.83,10.63,6.78,2.51,8.17,4.01,8.17,6.52s-2.03,4.59-6.46,4.59c-3.36,0-7.11-1.28-10.21-3.36l-2.3,5.98c3.42,2.08,7.85,3.58,12.29,3.58,8.39,0,13.46-4.11,13.46-10.79Z"/><path class="cls-3" d="M208.97,369.5c-1.5-.36-2.53-.72-2.53-1.67,0-.88.77-1.49,2.06-1.49.89,0,2.08.26,2.85.63l.46-.87c-.83-.4-2.1-.71-3.3-.71-1.98,0-3.18,1.04-3.18,2.51,0,1.67,1.51,2.15,3.35,2.58,1.41.34,2.38.71,2.38,1.66s-.86,1.54-2.2,1.54c-1.24,0-1.92-.1-3.21-.73l-.41.84c1.44.72,2.11.84,3.58.84,2.02,0,3.35-.95,3.35-2.57s-1.39-2.14-3.21-2.56Z"/><path class="cls-3" d="M228.17,366.41v-.94h-7.32v.94h3.09v8.11h1.11v-8.11h3.11Z"/><path class="cls-3" d="M241.58,365.41c-2.63,0-4.78,2.07-4.78,4.59s2.15,4.6,4.78,4.6,4.79-2.07,4.79-4.6-2.13-4.59-4.79-4.59ZM241.58,373.59c-2.02,0-3.66-1.6-3.66-3.58s1.64-3.58,3.66-3.58,3.66,1.61,3.66,3.58-1.63,3.58-3.66,3.58Z"/><path class="cls-3" d="M264.56,365.47h-.58l-3.93,6.01-3.93-6.01h-.57v9.05h1.1v-6.55l3.4,5.34,3.4-5.34v6.55h1.1v-9.05Z"/><path class="cls-3" d="M280.13,372.25l1.02,2.27h1.16l-4.2-9.05h-.6l-4.19,9.05h1.16l1-2.27h4.66ZM275.87,371.35l1.93-4.38,1.94,4.38h-3.86Z"/><path class="cls-3" d="M297.87,366.41v-.94h-7.32v.94h3.09v8.11h1.11v-8.11h3.11Z"/><path class="cls-3" d="M311.28,365.41c-2.63,0-4.78,2.07-4.78,4.59s2.15,4.6,4.78,4.6,4.79-2.07,4.79-4.6-2.13-4.59-4.79-4.59ZM311.28,373.59c-2.02,0-3.66-1.6-3.66-3.58s1.64-3.58,3.66-3.58,3.66,1.61,3.66,3.58-1.63,3.58-3.66,3.58Z"/><path class="cls-3" d="M331.38,373.61h-5.02v-8.14h-1.1v9.05h6.12v-.91Z"/><path class="cls-3" d="M344.71,365.41c-2.63,0-4.78,2.07-4.78,4.59s2.15,4.6,4.78,4.6,4.79-2.07,4.79-4.6-2.13-4.59-4.79-4.59ZM344.71,373.59c-2.02,0-3.66-1.6-3.66-3.58s1.64-3.58,3.66-3.58,3.66,1.61,3.66,3.58-1.63,3.58-3.66,3.58Z"/><path class="cls-3" d="M366.97,370.19h-4.14v.91h3.03v1.64c-.74.55-1.71.89-2.81.89-2.03,0-3.67-1.6-3.67-3.62s1.64-3.58,3.67-3.58c1.18,0,2.18.4,2.89,1.04l.7-.76c-.86-.8-2.09-1.3-3.58-1.3-2.65,0-4.79,2.07-4.79,4.59s2.15,4.6,4.79,4.6c1.53,0,2.91-.52,3.92-1.32v-3.09Z"/><path class="cls-3" d="M377.38,374.53v-9.05h-1.11v9.05h1.11Z"/><path class="cls-3" d="M392.97,372.25l1.02,2.27h1.16l-4.2-9.05h-.6l-4.19,9.05h1.16l1-2.27h4.66ZM388.71,371.35l1.93-4.38,1.94,4.38h-3.86Z"/></svg>